<svg width="250" height="55" viewBox="0 0 250 55" fill="none" xmlns="http://www.w3.org/2000/svg">
<path d="M68.7971 4.96777L134.477 42.3624H3.1167L68.7971 4.96777Z" stroke="#E40000" stroke-width="2.87651" stroke-linejoin="round"/>
<path d="M69.2769 29.8975H71.674C74.5865 29.8975 76.9476 32.2585 76.9476 35.1711V37.5682H69.2769V29.8975Z" fill="#E40000"/>
<path d="M69.2769 50.0332H76.9476V39.486H69.2769V50.0332Z" fill="#E40000"/>
<path d="M67.8384 29.8975H65.4413C62.5288 29.8975 60.1677 32.2585 60.1677 35.1711V37.5682H67.8384V29.8975Z" fill="#E40000"/>
<path d="M67.8384 47.1562H65.4413C62.5288 47.1562 60.1677 44.7952 60.1677 41.8826V39.4856H67.8384V47.1562Z" fill="#E40000"/>
<path d="M32.3616 11.6797H38.594V22.7063L32.2973 24.8637L32.3616 11.6797Z" fill="#E40000"/>
<rect x="31.4028" y="8.80273" width="8.15012" height="2.87651" fill="#E40000"/>
<rect x="69.2769" y="30.377" width="15.8208" height="1.43826" transform="rotate(90 69.2769 30.377)" fill="white"/>
<rect x="60.1675" y="30.8564" width="15.8208" height="1.43826" transform="rotate(90 60.1675 30.8564)" fill="white"/>
<rect x="78.3862" y="31.3359" width="15.8208" height="1.43826" transform="rotate(90 78.3862 31.3359)" fill="white"/>
<path d="M108.349 38.5267L122.091 46.3528L121.38 47.6027L107.63 39.7765L108.349 38.5267Z" fill="white"/>
<path d="M121.65 37.7855L135.392 45.611L134.804 46.644L121.055 38.8178L121.65 37.7855Z" fill="white"/>
<path d="M134.477 50.0333L68.7971 12.6387L3.1167 50.0333L73.8309 50.0333" stroke="#E40000" stroke-width="6.23244" stroke-linecap="round" stroke-linejoin="round"/>
<rect x="11.7466" y="39.4863" width="18.6973" height="1.43826" fill="white"/>
<rect x="5.03467" y="43.8008" width="15.8208" height="1.43826" fill="white"/>
<path d="M162.883 22L157.621 15.0539H156.705V22H152.66V5.26393H156.705V11.7606H157.351L162.532 5.26393H167.59L161.143 13.1662L167.925 22H162.883ZM169.402 22V5.26393H176.316C177.569 5.26393 178.65 5.50909 179.56 5.99941C180.475 6.48427 181.181 7.16254 181.677 8.03421C182.172 8.90043 182.42 9.9083 182.42 11.0578C182.42 12.2128 182.167 13.2234 181.66 14.0896C181.159 14.9504 180.443 15.6177 179.511 16.0917C178.579 16.5657 177.474 16.8027 176.193 16.8027H171.928V13.6156H175.441C176.052 13.6156 176.561 13.5094 176.97 13.2969C177.384 13.0844 177.697 12.7875 177.909 12.4062C178.122 12.0194 178.228 11.5699 178.228 11.0578C178.228 10.5403 178.122 10.0935 177.909 9.71762C177.697 9.33627 177.384 9.04208 176.97 8.83506C176.556 8.62804 176.046 8.52453 175.441 8.52453H173.447V22H169.402ZM200.21 13.632C200.21 15.4734 199.856 17.0342 199.148 18.3145C198.44 19.5947 197.481 20.5672 196.272 21.2318C195.068 21.8965 193.717 22.2288 192.218 22.2288C190.715 22.2288 189.361 21.8938 188.157 21.2237C186.953 20.5536 185.997 19.5811 185.289 18.3063C184.586 17.026 184.234 15.4679 184.234 13.632C184.234 11.7906 184.586 10.2297 185.289 8.94946C185.997 7.6692 186.953 6.69674 188.157 6.03209C189.361 5.36744 190.715 5.03512 192.218 5.03512C193.717 5.03512 195.068 5.36744 196.272 6.03209C197.481 6.69674 198.44 7.6692 199.148 8.94946C199.856 10.2297 200.21 11.7906 200.21 13.632ZM196.076 13.632C196.076 12.5424 195.92 11.6217 195.61 10.8699C195.305 10.118 194.863 9.54874 194.286 9.16193C193.714 8.77513 193.025 8.58173 192.218 8.58173C191.418 8.58173 190.728 8.77513 190.151 9.16193C189.573 9.54874 189.129 10.118 188.819 10.8699C188.514 11.6217 188.361 12.5424 188.361 13.632C188.361 14.7216 188.514 15.6423 188.819 16.3941C189.129 17.1459 189.573 17.7152 190.151 18.102C190.728 18.4888 191.418 18.6822 192.218 18.6822C193.025 18.6822 193.714 18.4888 194.286 18.102C194.863 17.7152 195.305 17.1459 195.61 16.3941C195.92 15.6423 196.076 14.7216 196.076 13.632ZM202.572 22V5.26393H209.551C210.804 5.26393 211.853 5.44099 212.697 5.79511C213.547 6.14922 214.184 6.64499 214.609 7.28239C215.04 7.9198 215.255 8.658 215.255 9.49698C215.255 10.1344 215.121 10.7037 214.855 11.2049C214.588 11.7007 214.22 12.112 213.751 12.4389C213.283 12.7657 212.741 12.9946 212.125 13.1253V13.2887C212.801 13.3214 213.424 13.5039 213.996 13.8363C214.574 14.1686 215.037 14.6317 215.386 15.2255C215.734 15.8139 215.909 16.5112 215.909 17.3175C215.909 18.2164 215.68 19.02 215.222 19.7282C214.765 20.431 214.103 20.9867 213.237 21.3953C212.37 21.7984 211.319 22 210.082 22H202.572ZM206.617 18.7394H209.118C209.995 18.7394 210.641 18.5732 211.055 18.2409C211.474 17.9086 211.684 17.4455 211.684 16.8517C211.684 16.4213 211.583 16.0509 211.381 15.7403C211.18 15.4243 210.894 15.1819 210.523 15.013C210.153 14.8387 209.709 14.7515 209.191 14.7515H206.617V18.7394ZM206.617 12.1447H208.856C209.298 12.1447 209.69 12.0711 210.033 11.924C210.376 11.7769 210.643 11.5645 210.834 11.2866C211.03 11.0088 211.128 10.6737 211.128 10.2815C211.128 9.72035 210.929 9.27906 210.532 8.95764C210.134 8.63621 209.597 8.47549 208.922 8.47549H206.617V12.1447ZM217.126 22V18.8293L217.584 18.7803C218.172 18.7094 218.652 18.4725 219.022 18.0693C219.393 17.6607 219.673 17.0124 219.864 16.1244C220.06 15.2309 220.185 14.0242 220.24 12.5042L220.51 5.26393H232.253V22H228.338V8.45098H224.244L223.983 13.9915C223.89 15.9038 223.648 17.4482 223.255 18.625C222.863 19.7963 222.256 20.6516 221.433 21.191C220.616 21.7303 219.518 22 218.14 22H217.126ZM248.112 22H244.075V8.52453H242.081C241.477 8.52453 240.967 8.61169 240.553 8.78603C240.139 8.95491 239.823 9.21096 239.605 9.55419C239.393 9.89196 239.287 10.3196 239.287 10.8372C239.287 11.3547 239.393 11.7797 239.605 12.112C239.818 12.4389 240.131 12.684 240.545 12.8475C240.964 13.0055 241.474 13.0844 242.073 13.0844H245.693V16.2715H241.329C240.055 16.2715 238.949 16.0617 238.012 15.6423C237.08 15.2173 236.361 14.6017 235.854 13.7954C235.348 12.9837 235.094 11.9976 235.094 10.8372C235.094 9.69311 235.342 8.70431 235.838 7.87077C236.334 7.03179 237.039 6.38893 237.954 5.9422C238.87 5.49002 239.954 5.26393 241.207 5.26393H248.112V22ZM238.69 14.3511H243.021L238.943 22H234.522L238.69 14.3511Z" fill="black"/>
<path d="M159.565 33.9964H163.676C165.049 33.9964 166.266 34.2824 167.329 34.8544C168.391 35.421 169.225 36.2246 169.829 37.2651C170.434 38.3002 170.736 39.526 170.736 40.9425C170.736 42.2936 170.434 43.4676 169.829 44.4646C169.225 45.4616 168.391 46.2352 167.329 46.7854C166.266 47.3302 165.049 47.6026 163.676 47.6026H159.565C158.182 47.6026 156.956 47.3329 155.888 46.7936C154.826 46.2488 153.992 45.4752 153.388 44.4728C152.783 43.4703 152.48 42.2854 152.48 40.918C152.48 39.507 152.786 38.2839 153.396 37.2488C154.011 36.2137 154.853 35.4128 155.921 34.8463C156.989 34.2797 158.203 33.9964 159.565 33.9964ZM159.565 37.3387C158.923 37.3387 158.345 37.464 157.833 37.7146C157.321 37.9598 156.918 38.3466 156.624 38.875C156.329 39.4035 156.182 40.0844 156.182 40.918C156.182 41.697 156.332 42.3344 156.632 42.8302C156.937 43.3205 157.345 43.6828 157.858 43.9171C158.37 44.1459 158.939 44.2603 159.565 44.2603H163.7C164.338 44.2603 164.904 44.1404 165.4 43.9007C165.901 43.661 166.294 43.296 166.577 42.8057C166.866 42.3154 167.01 41.6943 167.01 40.9425C167.01 40.109 166.866 39.428 166.577 38.8995C166.294 38.3656 165.901 37.9734 165.4 37.7228C164.904 37.4667 164.338 37.3387 163.7 37.3387H159.565ZM163.512 31.9697V49.6864H159.713V31.9697H163.512ZM175.719 49H171.372L177.019 32.2639H182.404L188.051 49H183.703L179.773 36.4806H179.642L175.719 49ZM175.139 42.4134H184.226V45.4861H175.139V42.4134ZM204.258 38.3275H200.172C200.117 37.908 200.006 37.5294 199.837 37.1916C199.668 36.8538 199.444 36.5651 199.167 36.3254C198.889 36.0857 198.559 35.9032 198.178 35.7779C197.802 35.6471 197.385 35.5817 196.927 35.5817C196.116 35.5817 195.416 35.7806 194.827 36.1783C194.244 36.576 193.795 37.1507 193.479 37.9025C193.168 38.6544 193.013 39.5642 193.013 40.632C193.013 41.7433 193.171 42.6749 193.487 43.4268C193.808 44.1731 194.258 44.737 194.835 45.1183C195.418 45.4943 196.108 45.6822 196.903 45.6822C197.35 45.6822 197.756 45.625 198.121 45.5106C198.491 45.3962 198.815 45.23 199.093 45.0121C199.376 44.7887 199.608 44.5191 199.788 44.2031C199.973 43.8817 200.101 43.5194 200.172 43.1162L204.258 43.1407C204.187 43.8817 203.972 44.6117 203.612 45.3308C203.258 46.0499 202.77 46.7064 202.149 47.3002C201.528 47.8886 200.771 48.3571 199.877 48.7058C198.989 49.0545 197.971 49.2288 196.821 49.2288C195.307 49.2288 193.95 48.8965 192.752 48.2318C191.558 47.5617 190.616 46.5866 189.924 45.3063C189.232 44.026 188.886 42.4679 188.886 40.632C188.886 38.7906 189.238 37.2297 189.94 35.9495C190.643 34.6692 191.594 33.6967 192.792 33.0321C193.991 32.3674 195.334 32.0351 196.821 32.0351C197.835 32.0351 198.772 32.1768 199.632 32.4601C200.493 32.7379 201.25 33.1465 201.904 33.6858C202.558 34.2197 203.089 34.8762 203.498 35.6553C203.906 36.4343 204.16 37.3251 204.258 38.3275ZM209.765 49H205.418L211.065 32.2639H216.45L222.097 49H217.749L213.819 36.4806H213.688L209.765 49ZM209.185 42.4134H218.272V45.4861H209.185V42.4134ZM223.172 53.0288V45.8456H224.324C224.711 45.5841 225.065 45.2191 225.386 44.7506C225.708 44.2766 225.983 43.612 226.211 42.7567C226.44 41.8959 226.604 40.76 226.702 39.349L227.225 32.2639H238.674V45.8456H240.471V53.0206H236.582V49H227.061V53.0288H223.172ZM228.965 45.8456H234.784V35.549H230.853L230.592 39.349C230.521 40.4113 230.406 41.3484 230.248 42.1601C230.09 42.9719 229.902 43.6801 229.685 44.2848C229.467 44.8841 229.227 45.4044 228.965 45.8456Z" fill="black"/>
</svg>
